<svg width="628" height="368" viewBox="0 0 628 368" fill="none" xmlns="http://www.w3.org/2000/svg">
<path d="M21.3996 0.789062L15.6143 168.441H52.4118L54.7663 103L121.881 102.35V71.3228L55.4838 70.1786L56.1566 33.4984L104.525 33.8349L104.188 0.789062H21.3996Z" fill="#E7F8FF"/>
<path d="M121.455 171.358L190.031 5.44439C190.449 4.43274 191.955 4.73171 191.955 5.82637V80.8798L155.808 171.986L121.455 171.358Z" fill="#E7F8FF"/>
<path d="M268.196 171.358L203.397 5.84332C202.992 4.80959 201.456 5.10657 201.466 6.21665L202.113 80.0273L233.843 171.986L268.196 171.358Z" fill="#E7F8FF"/>
<path d="M106.901 358.483L175.478 192.591C175.896 191.58 177.402 191.879 177.402 192.973V268.027L141.255 359.133L106.901 358.483Z" fill="#E7F8FF"/>
<path d="M249.966 358.64L189.524 193.13C189.142 192.084 187.593 192.352 187.585 193.465L186.977 272.043L214.379 359.268L249.966 358.64Z" fill="#E7F8FF"/>
<path d="M5.47829 182.082C5.47829 183.607 0.365723 357.406 0.365723 357.406C0.365723 357.406 85.4418 360.861 85.4418 359.134C85.4418 357.406 87.3926 325.123 87.3926 325.123C87.3926 325.123 36.042 327.367 36.042 326.649C36.042 325.931 37.3202 286.783 37.3202 286.783L109.076 287.546V255.173C109.076 255.173 39.3833 255.442 39.3833 254.657C39.3833 253.872 41.1771 216.832 41.1771 216.832L89.7024 216.07L90.7338 183.607L5.47829 182.082Z" fill="#E7F8FF"/>
<path d="M363.318 36.6617C363.318 36.6617 302.5 36.8636 302.5 89.7415C302.5 142.619 336.544 143.203 363.879 143.203H397.088V174.611L339.1 175.62C339.1 175.62 267.837 166.422 267.837 89.7415C267.837 13.0607 338.54 6.1285 338.54 6.1285L397.044 5.47791V75.2489L363.408 74.4861L363.318 36.6617Z" fill="#E7F8FF"/>
<path d="M406.013 5.29834L408.906 174.05L488.78 175.531V145.446L438.371 144.077L439.043 107.958H504.588L504.723 76.1461L440.994 74.1495L441.084 39.4659L488.421 38.7929L489.116 5.29834H406.013Z" fill="#E7F8FF"/>
<path d="M259.496 359.896L291.854 359.134V293.513L306.833 290.798L337.822 361.669L377.333 359.627L345.267 286.693C345.267 286.693 375.562 276.126 375.562 238.997C375.562 201.869 343.563 187.937 343.563 187.937L256.11 186.523L257.769 218.38L330.445 219.278C330.445 219.278 341.948 221.835 341.948 236.014C341.948 250.192 336.32 256.833 329.548 256.833C322.776 256.833 259.137 257.64 259.137 257.64L259.496 359.896Z" fill="#E7F8FF"/>
<path d="M382.289 186.501V216.832L483.958 217.864V186.501H382.289Z" fill="#E7F8FF"/>
<path d="M491.627 187.937V263.361L525.869 265.403V186.501L491.627 187.937Z" fill="#E7F8FF"/>
<path d="M415.499 245.571L451.511 244.561V361.669H415.499V245.571Z" fill="#E7F8FF"/>
<path d="M491.627 364.832V297.103H592.288L589.978 189.485H625.229L627.785 367.12H592.019L591.772 334.658L528.918 333.132L527.909 365.842L491.627 364.832Z" fill="#E7F8FF"/>
<path d="M603.523 6.91355V43.0554H590.494L589.799 31.8606L526.497 32.242L527.08 17.9961L589.418 17.7494L589.732 6.37512L603.523 6.91355Z" fill="#6ED1FD"/>
<path d="M529.3 68.6757L604.868 68.9897L604.15 82.5401L572.286 82.9215L572.421 93.533H603.321L603.523 108.026H529.3L528.672 93.1291L558.495 93.3311L558.809 83.1683H528.021L529.3 68.6757Z" fill="#6ED1FD"/>
<path d="M529.098 136.293L604.285 136.54V168.06H592.154L591.862 148.654L574.349 149.193L573.43 165.727L560.85 165.637L560.267 148.722L541.745 148.385L541.05 168.576L529.098 169.428V136.293Z" fill="#6ED1FD"/>
</svg>
